<?xml version="1.0" encoding="utf-8"?>
<!-- Generator: Adobe Illustrator 15.1.0, SVG Export Plug-In . SVG Version: 6.00 Build 0)  -->
<!DOCTYPE svg PUBLIC "-//W3C//DTD SVG 1.1//EN" "http://www.w3.org/Graphics/SVG/1.1/DTD/svg11.dtd">
<svg version="1.1" id="Layer_1" xmlns="http://www.w3.org/2000/svg" xmlns:xlink="http://www.w3.org/1999/xlink" x="0px" y="0px"
	 width="800px" height="600px" viewBox="0 0 800 600" enable-background="new 0 0 800 600" xml:space="preserve">
<text transform="matrix(1 0 0 1 103.2812 300.0005)"><tspan x="0" y="0" fill="#231F20" font-family="'TrajanPro-Regular'" font-size="194" letter-spacing="-3">Y</tspan><tspan x="123.188" y="0" fill="#231F20" font-family="'TrajanPro-Regular'" font-size="194">OGA</tspan></text>
<text transform="matrix(1 0 0 1 100.124 127.2363)"><tspan x="0" y="0" fill="#231F20" font-family="'TrajanPro-Regular'" font-size="92.0881">AUTHENT</tspan><tspan x="499.94" y="0" fill="#231F20" font-family="'TrajanPro-Regular'" font-size="92.0881" letter-spacing="-1">I</tspan><tspan x="539.169" y="0" fill="#231F20" font-family="'TrajanPro-Regular'" font-size="92.0881">C</tspan></text>
<polygon fill="none" stroke="#231F20" stroke-width="3" points="107.075,331.198 107.075,331.198 725.956,331.198 "/>
<g>
	<circle fill="none" stroke="#000000" stroke-miterlimit="10" cx="400.031" cy="469.281" r="107.762"/>
	<polygon fill="none" stroke="#000000" stroke-miterlimit="10" points="295.146,491.5 504.916,491.5 400.031,361.594 	"/>
	<polygon fill="none" stroke="#000000" stroke-miterlimit="10" points="501.206,433.5 298.855,433.5 400.03,576.479 	"/>
	<polygon fill="none" stroke="#000000" stroke-miterlimit="10" points="323.026,521.5 477.035,521.5 400.031,388.938 	"/>
	<polygon fill="none" stroke="#000000" stroke-miterlimit="10" points="366.763,477.5 433.299,477.5 400.031,411.321 	"/>
	<polygon fill="none" stroke="#000000" stroke-miterlimit="10" points="351.01,542.5 449.052,542.5 400.03,433.428 	"/>
	<polygon fill="none" stroke="#000000" stroke-miterlimit="10" points="469.332,411.5 330.73,411.5 400.031,542.33 	"/>
	<polygon fill="none" stroke="#000000" stroke-miterlimit="10" points="453.954,388.5 346.107,388.5 400.03,478.117 	"/>
	<polygon fill="none" stroke="#000000" stroke-miterlimit="10" points="434.55,448.5 365.512,448.5 400.03,520.928 	"/>
	<polygon fill="none" stroke="#000000" stroke-miterlimit="10" points="422.831,458.5 377.23,458.5 400.03,491.59 	"/>
	<circle cx="400.031" cy="465.304" r="0.628"/>
</g>
</svg>
