<svg xmlns="http://www.w3.org/2000/svg" xmlns:svg="http://www.w3.org/2000/svg" style="stroke: #000000" x="0px" y="0px" width="250.316px" height="250.691px" viewBox="0 0 250.316 250.691" enable-background="new 0 0 250.316 250.691" xml:space="preserve">
 <g>
  <g id="Layer_1">
   <circle fill="none"  stroke-width="3" cx="125.22401" cy="124.22399" r="117.223999" id="svg_1"/>
  </g>
  <g id="Layer_3">
   <polygon fill="none"  stroke-width="2" points="237.31600952148438,95.13099670410156 125.2240219116211,240.41799926757812 13.132011413574219,95.13099670410156 " id="svg_2"/>
   <polygon fill="none"  stroke-width="2" points="187.50201416015625,37.13099670410156 125.23101043701172,138.27899169921875 62.94499969482422,37.13099670410156 " id="svg_3"/>
   <polygon fill="none"  stroke-width="2" points="211.4630126953125,65.92098999023438 125.2240219116211,196.96798706054688 38.985008239746094,65.92098999023438 " id="svg_4"/>
   <polygon fill="none"  stroke-width="2" points="13.132011413574219,153.55398559570312 125.2240219116211,8.267990112304688 237.31600952148438,153.55398559570312 " id="svg_5"/>
   <polygon fill="none"  stroke-width="2" points="62.94499969482422,211.55398559570312 125.2240219116211,110.04899597167969 187.50201416015625,211.55398559570312 " id="svg_6"/>
   <polygon fill="none"  stroke-width="2" points="38.985008239746094,182.76397705078125 125.2240219116211,51.71699523925781 211.4630126953125,182.76397705078125 " id="svg_7"/>
  </g>
  <g id="Layer_4">
   <polygon fill="none"  stroke-width="2" points="88.12450408935547,138.85699462890625 125.2245101928711,80.10798645019531 162.32351684570312,138.85699462890625 " id="svg_8"/>
   <polygon fill="none"  stroke-width="2" points="142.90953063964844,124.4019775390625 125.2245101928711,152.77899169921875 107.74251556396484,124.4019775390625 " id="svg_9"/>
   <polygon fill="none"  stroke-width="2" points="162.32351684570312,109.572998046875 125.2245101928711,168.32199096679688 88.12450408935547,109.572998046875 " id="svg_10"/>
  </g>
 </g>
</svg>